<svg width="562" height="90" viewBox="0 0 562 90" fill="none" xmlns="http://www.w3.org/2000/svg">
<rect x="0.44873" y="33.4316" width="3.70795" height="3.70795" fill="#8A4709"/>
<rect x="26.3984" y="81.6235" width="3.70795" height="3.70795" fill="#8A4709"/>
<rect x="100.54" y="77.9165" width="3.70795" height="3.70795" fill="#8A4709"/>
<rect x="115.368" y="77.9165" width="3.70795" height="3.70795" fill="#8A4709"/>
<rect x="104.247" y="81.6235" width="3.70795" height="3.70795" fill="#8A4709"/>
<rect x="119.075" y="81.6235" width="3.70795" height="3.70795" fill="#8A4709"/>
<rect x="104.247" y="77.9165" width="3.70795" height="3.70795" fill="#8A4709"/>
<rect x="119.075" y="77.9165" width="3.70795" height="3.70795" fill="#8A4709"/>
<rect x="107.954" y="81.6235" width="3.70795" height="3.70795" fill="#8A4709"/>
<rect x="122.782" y="81.6235" width="3.70795" height="3.70795" fill="#8A4709"/>
<rect x="130.197" y="26.0176" width="3.70795" height="3.70795" fill="#713B08"/>
<rect x="137.61" y="26.0176" width="3.70795" height="3.70795" fill="#713B08"/>
<rect x="133.904" y="26.0176" width="3.70795" height="3.70795" fill="#713B08"/>
<rect x="141.318" y="26.0176" width="3.70795" height="3.70795" fill="#713B08"/>
<rect x="159.853" y="18.6035" width="3.70795" height="3.70795" fill="black"/>
<rect x="159.853" y="14.8962" width="3.70795" height="3.70795" fill="black"/>
<rect x="141.318" y="11.1892" width="3.70795" height="3.70795" fill="black"/>
<rect x="141.318" y="22.3103" width="3.70795" height="3.70795" fill="#713B08"/>
<rect x="141.318" y="18.6035" width="3.70795" height="3.70795" fill="#713B08"/>
<rect x="130.197" y="18.6035" width="3.70795" height="3.70795" fill="#713B08"/>
<rect x="130.197" y="22.3103" width="3.70795" height="3.70795" fill="#713B08"/>
<rect x="130.197" y="14.8962" width="3.70795" height="3.70795" fill="#713B08"/>
<rect x="130.197" y="11.1892" width="3.70795" height="3.70795" fill="#713B08"/>
<rect x="0.44873" y="37.1389" width="3.70795" height="3.70795" fill="#8A4709"/>
<rect x="26.3984" y="85.3306" width="3.70795" height="3.70795" fill="#8A4709"/>
<rect x="37.5193" y="81.6235" width="3.70795" height="3.70795" fill="#8A4709"/>
<rect x="30.1052" y="85.3306" width="3.70795" height="3.70795" fill="#8A4709"/>
<rect x="41.2266" y="81.6235" width="3.70795" height="3.70795" fill="#8A4709"/>
<rect x="44.9336" y="81.6235" width="3.70795" height="3.70795" fill="#8A4709"/>
<rect x="4.15576" y="40.8457" width="3.70795" height="3.70795" fill="#8A4709"/>
<rect x="7.86279" y="44.5527" width="3.70795" height="3.70795" fill="#8A4709"/>
<rect x="15.2771" y="48.2598" width="3.70795" height="3.70795" fill="#8A4709"/>
<rect x="37.5193" y="44.5527" width="3.70795" height="3.70795" fill="#8A4709"/>
<rect x="37.5193" y="51.9668" width="3.70795" height="3.70795" fill="#8A4709"/>
<rect x="37.5193" y="48.2598" width="3.70795" height="3.70795" fill="#8A4709"/>
<rect x="37.5193" y="55.6741" width="3.70795" height="3.70795" fill="#8A4709"/>
<rect x="37.5193" y="59.3811" width="3.70795" height="3.70795" fill="#8A4709"/>
<rect x="37.5193" y="63.0879" width="3.70795" height="3.70795" fill="#8A4709"/>
<rect x="37.5193" y="66.7954" width="3.70795" height="3.70795" fill="#8A4709"/>
<rect x="22.6912" y="44.5527" width="3.70795" height="3.70795" fill="#8A4709"/>
<rect x="30.1052" y="48.2598" width="3.70795" height="3.70795" fill="#8A4709"/>
<rect x="33.8123" y="48.2598" width="3.70795" height="3.70795" fill="#8A4709"/>
<rect x="33.8123" y="51.9668" width="3.70795" height="3.70795" fill="#8A4709"/>
<rect x="33.8123" y="55.6741" width="3.70795" height="3.70795" fill="#8A4709"/>
<rect x="33.8123" y="59.3811" width="3.70795" height="3.70795" fill="#8A4709"/>
<rect x="33.8123" y="63.0879" width="3.70795" height="3.70795" fill="#8A4709"/>
<rect x="33.8123" y="66.7954" width="3.70795" height="3.70795" fill="#8A4709"/>
<rect x="30.1052" y="59.3811" width="3.70795" height="3.70795" fill="#8A4709"/>
<rect x="30.1052" y="63.0879" width="3.70795" height="3.70795" fill="#8A4709"/>
<rect x="30.1052" y="66.7954" width="3.70795" height="3.70795" fill="#8A4709"/>
<rect x="26.3984" y="66.7954" width="3.70795" height="3.70795" fill="#8A4709"/>
<rect x="26.3984" y="70.5024" width="3.70795" height="3.70795" fill="#8A4709"/>
<rect x="26.3984" y="74.2092" width="3.70795" height="3.70795" fill="#8A4709"/>
<rect x="30.1052" y="74.2092" width="3.70795" height="3.70795" fill="#8A4709"/>
<rect x="30.1052" y="70.5024" width="3.70795" height="3.70795" fill="#8A4709"/>
<rect x="33.8123" y="70.5024" width="3.70795" height="3.70795" fill="#8A4709"/>
<rect x="37.5193" y="70.5024" width="3.70795" height="3.70795" fill="#8A4709"/>
<rect x="41.2266" y="70.5024" width="3.70795" height="3.70795" fill="#8A4709"/>
<rect x="44.9336" y="70.5024" width="3.70795" height="3.70795" fill="#8A4709"/>
<rect x="48.6406" y="66.7954" width="3.70795" height="3.70795" fill="#8A4709"/>
<rect x="56.0547" y="63.0879" width="3.70795" height="3.70795" fill="#8A4709"/>
<rect x="63.4688" y="63.0879" width="3.70795" height="3.70795" fill="#8A4709"/>
<rect x="74.5901" y="63.0879" width="3.70795" height="3.70795" fill="#8A4709"/>
<rect x="52.3477" y="66.7954" width="3.70795" height="3.70795" fill="#8A4709"/>
<rect x="59.762" y="63.0879" width="3.70795" height="3.70795" fill="#8A4709"/>
<rect x="70.8831" y="63.0879" width="3.70795" height="3.70795" fill="#8A4709"/>
<rect x="67.1758" y="63.0879" width="3.70795" height="3.70795" fill="#8A4709"/>
<rect x="78.2971" y="63.0879" width="3.70795" height="3.70795" fill="#8A4709"/>
<rect x="82.0042" y="66.7954" width="3.70795" height="3.70795" fill="#8A4709"/>
<rect x="89.4185" y="66.7954" width="3.70795" height="3.70795" fill="#8A4709"/>
<rect x="85.7112" y="66.7954" width="3.70795" height="3.70795" fill="#8A4709"/>
<rect x="93.1257" y="66.7954" width="3.70795" height="3.70795" fill="#8A4709"/>
<rect x="96.8328" y="70.5024" width="3.70795" height="3.70795" fill="#8A4709"/>
<rect x="100.54" y="74.2095" width="3.70795" height="3.70795" fill="#8A4709"/>
<rect x="104.247" y="74.2095" width="3.70795" height="3.70795" fill="#8A4709"/>
<rect x="104.247" y="70.5024" width="3.70795" height="3.70795" fill="#8A4709"/>
<rect x="100.54" y="70.5024" width="3.70795" height="3.70795" fill="#8A4709"/>
<rect x="107.954" y="66.7954" width="3.70795" height="3.70795" fill="#8A4709"/>
<rect x="111.661" y="70.5024" width="3.70795" height="3.70795" fill="#8A4709"/>
<rect x="115.368" y="70.5024" width="3.70795" height="3.70795" fill="#8A4709"/>
<rect x="115.368" y="74.2095" width="3.70795" height="3.70795" fill="#8A4709"/>
<rect x="119.075" y="70.5024" width="3.70795" height="3.70795" fill="#8A4709"/>
<rect x="122.782" y="66.7954" width="3.70795" height="3.70795" fill="#8A4709"/>
<rect x="126.489" y="63.0881" width="3.70795" height="3.70795" fill="#8A4709"/>
<rect x="130.197" y="59.3811" width="3.70795" height="3.70795" fill="#8A4709"/>
<rect x="130.197" y="55.6743" width="3.70795" height="3.70795" fill="#8A4709"/>
<rect x="133.904" y="51.967" width="3.70795" height="3.70795" fill="#8A4709"/>
<rect x="133.904" y="44.553" width="3.70795" height="3.70795" fill="#8A4709"/>
<rect x="133.904" y="48.2598" width="3.70795" height="3.70795" fill="#8A4709"/>
<rect x="133.904" y="40.8459" width="3.70795" height="3.70795" fill="#8A4709"/>
<rect x="130.197" y="33.4316" width="3.70795" height="3.70795" fill="#F55C54"/>
<rect x="145.025" y="18.6035" width="3.70795" height="3.70795" fill="#8A4709"/>
<rect x="145.025" y="14.8962" width="3.70795" height="3.70795" fill="#8A4709"/>
<rect x="145.025" y="11.1892" width="3.70795" height="3.70795" fill="#8A4709"/>
<rect x="145.025" y="7.48218" width="3.70795" height="3.70795" fill="#8A4709"/>
<rect x="141.318" y="3.77515" width="3.70795" height="3.70795" fill="#8A4709"/>
<rect x="122.782" y="3.77515" width="3.70795" height="3.70795" fill="#8A4709"/>
<rect x="126.489" y="3.77515" width="3.70795" height="3.70795" fill="#8A4709"/>
<rect x="133.904" y="3.77515" width="3.70795" height="3.70795" fill="#8A4709"/>
<rect x="133.904" y="11.1892" width="3.70795" height="3.70795" fill="#8A4709"/>
<rect x="133.904" y="18.6035" width="3.70795" height="3.70795" fill="#8A4709"/>
<rect x="130.197" y="3.77515" width="3.70795" height="3.70795" fill="#8A4709"/>
<rect x="137.61" y="3.77515" width="3.70795" height="3.70795" fill="#8A4709"/>
<rect x="137.61" y="11.1892" width="3.70795" height="3.70795" fill="#8A4709"/>
<rect x="137.61" y="18.6035" width="3.70795" height="3.70795" fill="#8A4709"/>
<rect x="119.075" y="11.1892" width="3.70795" height="3.70795" fill="#8A4709"/>
<rect x="115.368" y="18.6035" width="3.70795" height="3.70795" fill="#8A4709"/>
<rect x="111.661" y="26.0176" width="3.70795" height="3.70795" fill="#8A4709"/>
<rect x="119.075" y="14.8962" width="3.70795" height="3.70795" fill="#8A4709"/>
<rect x="122.782" y="7.48218" width="3.70795" height="3.70795" fill="#8A4709"/>
<rect x="126.489" y="7.48218" width="3.70795" height="3.70795" fill="#8A4709"/>
<rect x="133.904" y="7.48218" width="3.70795" height="3.70795" fill="#8A4709"/>
<rect x="133.904" y="14.8962" width="3.70795" height="3.70795" fill="#8A4709"/>
<rect x="133.904" y="22.3103" width="3.70795" height="3.70795" fill="#8A4709"/>
<rect x="130.197" y="7.48218" width="3.70795" height="3.70795" fill="#8A4709"/>
<rect x="137.61" y="7.48218" width="3.70795" height="3.70795" fill="#8A4709"/>
<rect x="141.318" y="7.48218" width="3.70795" height="3.70795" fill="#8A4709"/>
<rect x="137.61" y="14.8962" width="3.70795" height="3.70795" fill="#8A4709"/>
<rect x="141.318" y="14.8962" width="3.70795" height="3.70795" fill="#8A4709"/>
<rect x="137.61" y="22.3103" width="3.70795" height="3.70795" fill="#8A4709"/>
<rect x="115.368" y="22.3103" width="3.70795" height="3.70795" fill="#8A4709"/>
<rect x="111.661" y="29.7246" width="3.70795" height="3.70795" fill="#F55C54"/>
<rect x="107.954" y="33.4316" width="3.70795" height="3.70795" fill="#8A4709"/>
<rect x="100.54" y="37.1389" width="3.70795" height="3.70795" fill="#8A4709"/>
<rect x="93.1257" y="40.8459" width="3.70795" height="3.70795" fill="#8A4709"/>
<rect x="96.8328" y="37.1389" width="3.70795" height="3.70795" fill="#8A4709"/>
<rect x="104.247" y="33.4316" width="3.70795" height="3.70795" fill="#8A4709"/>
<rect x="89.4185" y="40.8459" width="3.70795" height="3.70795" fill="#8A4709"/>
<rect x="137.61" y="0.0678711" width="3.70795" height="3.70795" fill="#8A4709"/>
<rect x="130.197" y="0.0678711" width="3.70795" height="3.70795" fill="#8A4709"/>
<rect x="133.904" y="0.0678711" width="3.70795" height="3.70795" fill="#8A4709"/>
<rect x="126.489" y="0.0678711" width="3.70795" height="3.70795" fill="#8A4709"/>
<rect x="148.732" y="18.6035" width="3.70795" height="3.70795" fill="#8A4709"/>
<rect x="148.732" y="14.8962" width="3.70795" height="3.70795" fill="#8A4709"/>
<rect x="148.732" y="11.1892" width="3.70795" height="3.70795" fill="#8A4709"/>
<rect x="152.439" y="18.6035" width="3.70795" height="3.70795" fill="#8A4709"/>
<rect x="152.439" y="14.8962" width="3.70795" height="3.70795" fill="#8A4709"/>
<rect x="152.439" y="11.1892" width="3.70795" height="3.70795" fill="#8A4709"/>
<rect x="156.146" y="18.6035" width="3.70795" height="3.70795" fill="#8A4709"/>
<rect x="156.146" y="14.8962" width="3.70795" height="3.70795" fill="#8A4709"/>
<rect x="133.904" y="37.1389" width="3.70795" height="3.70795" fill="#8A4709"/>
<rect x="130.197" y="29.7246" width="3.70795" height="3.70795" fill="#8A4709"/>
<rect x="119.075" y="74.2095" width="3.70795" height="3.70795" fill="#8A4709"/>
<rect x="82.0042" y="63.0879" width="3.70795" height="3.70795" fill="#8A4709"/>
<rect x="96.8328" y="63.0881" width="3.70795" height="3.70795" fill="#8A4709"/>
<rect x="96.8328" y="66.7954" width="3.70795" height="3.70795" fill="#8A4709"/>
<rect x="111.661" y="63.0881" width="3.70795" height="3.70795" fill="#8A4709"/>
<rect x="111.661" y="66.7954" width="3.70795" height="3.70795" fill="#8A4709"/>
<rect x="89.4185" y="63.0881" width="3.70795" height="3.70795" fill="#8A4709"/>
<rect x="104.247" y="63.0881" width="3.70795" height="3.70795" fill="#8A4709"/>
<rect x="104.247" y="66.7954" width="3.70795" height="3.70795" fill="#8A4709"/>
<rect x="119.075" y="63.0881" width="3.70795" height="3.70795" fill="#8A4709"/>
<rect x="119.075" y="66.7954" width="3.70795" height="3.70795" fill="#8A4709"/>
<rect x="37.5193" y="74.2092" width="3.70795" height="3.70795" fill="#8A4709"/>
<rect x="37.5193" y="77.9163" width="3.70795" height="3.70795" fill="#8A4709"/>
<rect x="41.2266" y="74.2092" width="3.70795" height="3.70795" fill="#8A4709"/>
<rect x="41.2266" y="77.9163" width="3.70795" height="3.70795" fill="#8A4709"/>
<rect x="26.3984" y="77.9163" width="3.70795" height="3.70795" fill="#8A4709"/>
<rect x="52.3477" y="44.5527" width="3.70795" height="3.70795" fill="#8A4709"/>
<rect x="52.3477" y="51.9668" width="3.70795" height="3.70795" fill="#8A4709"/>
<rect x="52.3477" y="48.2598" width="3.70795" height="3.70795" fill="#8A4709"/>
<rect x="52.3477" y="55.6741" width="3.70795" height="3.70795" fill="#8A4709"/>
<rect x="52.3477" y="59.3811" width="3.70795" height="3.70795" fill="#8A4709"/>
<rect x="52.3477" y="63.0879" width="3.70795" height="3.70795" fill="#8A4709"/>
<rect x="74.5901" y="44.5527" width="3.70795" height="3.70795" fill="#8A4709"/>
<rect x="74.5901" y="51.9668" width="3.70795" height="3.70795" fill="#8A4709"/>
<rect x="74.5901" y="48.2598" width="3.70795" height="3.70795" fill="#8A4709"/>
<rect x="74.5901" y="55.6741" width="3.70795" height="3.70795" fill="#8A4709"/>
<rect x="74.5901" y="59.3811" width="3.70795" height="3.70795" fill="#8A4709"/>
<rect x="15.2771" y="44.5527" width="3.70795" height="3.70795" fill="#8A4709"/>
<rect x="22.6912" y="48.2598" width="3.70795" height="3.70795" fill="#8A4709"/>
<rect x="44.9336" y="44.5527" width="3.70795" height="3.70795" fill="#8A4709"/>
<rect x="44.9336" y="51.9668" width="3.70795" height="3.70795" fill="#8A4709"/>
<rect x="44.9336" y="48.2598" width="3.70795" height="3.70795" fill="#8A4709"/>
<rect x="44.9336" y="55.6741" width="3.70795" height="3.70795" fill="#8A4709"/>
<rect x="44.9336" y="59.3811" width="3.70795" height="3.70795" fill="#8A4709"/>
<rect x="44.9336" y="63.0879" width="3.70795" height="3.70795" fill="#8A4709"/>
<rect x="44.9336" y="66.7954" width="3.70795" height="3.70795" fill="#8A4709"/>
<rect x="67.1758" y="44.5527" width="3.70795" height="3.70795" fill="#8A4709"/>
<rect x="67.1758" y="51.9668" width="3.70795" height="3.70795" fill="#8A4709"/>
<rect x="67.1758" y="48.2598" width="3.70795" height="3.70795" fill="#8A4709"/>
<rect x="67.1758" y="55.6741" width="3.70795" height="3.70795" fill="#8A4709"/>
<rect x="67.1758" y="59.3811" width="3.70795" height="3.70795" fill="#8A4709"/>
<rect x="30.1052" y="44.5527" width="3.70795" height="3.70795" fill="#8A4709"/>
<rect x="59.762" y="44.5527" width="3.70795" height="3.70795" fill="#8A4709"/>
<rect x="59.762" y="51.9668" width="3.70795" height="3.70795" fill="#8A4709"/>
<rect x="59.762" y="48.2598" width="3.70795" height="3.70795" fill="#8A4709"/>
<rect x="59.762" y="55.6741" width="3.70795" height="3.70795" fill="#8A4709"/>
<rect x="59.762" y="59.3811" width="3.70795" height="3.70795" fill="#8A4709"/>
<rect x="82.0042" y="44.5527" width="3.70795" height="3.70795" fill="#8A4709"/>
<rect x="96.8328" y="44.553" width="3.70795" height="3.70795" fill="#8A4709"/>
<rect x="96.8328" y="40.8459" width="3.70795" height="3.70795" fill="#8A4709"/>
<rect x="111.661" y="44.553" width="3.70795" height="3.70795" fill="#8A4709"/>
<rect x="111.661" y="40.8459" width="3.70795" height="3.70795" fill="#8A4709"/>
<rect x="111.661" y="37.1389" width="3.70795" height="3.70795" fill="#8A4709"/>
<rect x="111.661" y="33.4316" width="3.70795" height="3.70795" fill="#8A4709"/>
<rect x="89.4185" y="44.553" width="3.70795" height="3.70795" fill="#8A4709"/>
<rect x="104.247" y="44.553" width="3.70795" height="3.70795" fill="#8A4709"/>
<rect x="104.247" y="40.8459" width="3.70795" height="3.70795" fill="#8A4709"/>
<rect x="104.247" y="37.1389" width="3.70795" height="3.70795" fill="#8A4709"/>
<rect x="119.075" y="44.553" width="3.70795" height="3.70795" fill="#8A4709"/>
<rect x="119.075" y="37.1389" width="3.70795" height="3.70795" fill="#8A4709"/>
<rect x="119.075" y="40.8459" width="3.70795" height="3.70795" fill="#8A4709"/>
<rect x="119.075" y="33.4316" width="3.70795" height="3.70795" fill="#F55C54"/>
<rect x="119.075" y="29.7246" width="3.70795" height="3.70795" fill="#8A4709"/>
<rect x="119.075" y="26.0176" width="3.70795" height="3.70795" fill="#8A4709"/>
<rect x="119.075" y="22.3103" width="3.70795" height="3.70795" fill="#8A4709"/>
<rect x="119.075" y="18.6035" width="3.70795" height="3.70795" fill="#8A4709"/>
<rect x="82.0042" y="51.9668" width="3.70795" height="3.70795" fill="#8A4709"/>
<rect x="96.8328" y="51.967" width="3.70795" height="3.70795" fill="#8A4709"/>
<rect x="111.661" y="51.967" width="3.70795" height="3.70795" fill="#8A4709"/>
<rect x="89.4185" y="51.967" width="3.70795" height="3.70795" fill="#8A4709"/>
<rect x="104.247" y="51.967" width="3.70795" height="3.70795" fill="#8A4709"/>
<rect x="119.075" y="51.967" width="3.70795" height="3.70795" fill="#8A4709"/>
<rect x="82.0042" y="48.2598" width="3.70795" height="3.70795" fill="#8A4709"/>
<rect x="96.8328" y="48.2598" width="3.70795" height="3.70795" fill="#8A4709"/>
<rect x="111.661" y="48.2598" width="3.70795" height="3.70795" fill="#8A4709"/>
<rect x="89.4185" y="48.2598" width="3.70795" height="3.70795" fill="#8A4709"/>
<rect x="104.247" y="48.2598" width="3.70795" height="3.70795" fill="#8A4709"/>
<rect x="119.075" y="48.2598" width="3.70795" height="3.70795" fill="#8A4709"/>
<rect x="82.0042" y="55.6741" width="3.70795" height="3.70795" fill="#8A4709"/>
<rect x="96.8328" y="55.6743" width="3.70795" height="3.70795" fill="#8A4709"/>
<rect x="111.661" y="55.6743" width="3.70795" height="3.70795" fill="#8A4709"/>
<rect x="89.4185" y="55.6743" width="3.70795" height="3.70795" fill="#8A4709"/>
<rect x="104.247" y="55.6743" width="3.70795" height="3.70795" fill="#8A4709"/>
<rect x="119.075" y="55.6743" width="3.70795" height="3.70795" fill="#8A4709"/>
<rect x="82.0042" y="59.3811" width="3.70795" height="3.70795" fill="#8A4709"/>
<rect x="96.8328" y="59.3811" width="3.70795" height="3.70795" fill="#8A4709"/>
<rect x="111.661" y="59.3811" width="3.70795" height="3.70795" fill="#8A4709"/>
<rect x="89.4185" y="59.3811" width="3.70795" height="3.70795" fill="#8A4709"/>
<rect x="104.247" y="59.3811" width="3.70795" height="3.70795" fill="#8A4709"/>
<rect x="119.075" y="59.3811" width="3.70795" height="3.70795" fill="#8A4709"/>
<rect x="7.86279" y="40.8457" width="3.70795" height="3.70795" fill="#8A4709"/>
<rect x="11.5701" y="44.5527" width="3.70795" height="3.70795" fill="#8A4709"/>
<rect x="18.9839" y="48.2598" width="3.70795" height="3.70795" fill="#8A4709"/>
<rect x="41.2266" y="44.5527" width="3.70795" height="3.70795" fill="#8A4709"/>
<rect x="41.2266" y="51.9668" width="3.70795" height="3.70795" fill="#8A4709"/>
<rect x="41.2266" y="48.2598" width="3.70795" height="3.70795" fill="#8A4709"/>
<rect x="41.2266" y="55.6741" width="3.70795" height="3.70795" fill="#8A4709"/>
<rect x="41.2266" y="59.3811" width="3.70795" height="3.70795" fill="#8A4709"/>
<rect x="41.2266" y="63.0879" width="3.70795" height="3.70795" fill="#8A4709"/>
<rect x="41.2266" y="66.7954" width="3.70795" height="3.70795" fill="#8A4709"/>
<rect x="26.3984" y="44.5527" width="3.70795" height="3.70795" fill="#8A4709"/>
<rect x="56.0547" y="44.5527" width="3.70795" height="3.70795" fill="#8A4709"/>
<rect x="56.0547" y="51.9668" width="3.70795" height="3.70795" fill="#8A4709"/>
<rect x="56.0547" y="48.2598" width="3.70795" height="3.70795" fill="#8A4709"/>
<rect x="56.0547" y="55.6741" width="3.70795" height="3.70795" fill="#8A4709"/>
<rect x="56.0547" y="59.3811" width="3.70795" height="3.70795" fill="#8A4709"/>
<rect x="78.2971" y="44.5527" width="3.70795" height="3.70795" fill="#8A4709"/>
<rect x="78.2971" y="51.9668" width="3.70795" height="3.70795" fill="#8A4709"/>
<rect x="78.2971" y="48.2598" width="3.70795" height="3.70795" fill="#8A4709"/>
<rect x="78.2971" y="55.6741" width="3.70795" height="3.70795" fill="#8A4709"/>
<rect x="78.2971" y="59.3811" width="3.70795" height="3.70795" fill="#8A4709"/>
<rect x="18.9839" y="44.5527" width="3.70795" height="3.70795" fill="#8A4709"/>
<rect x="26.3984" y="48.2598" width="3.70795" height="3.70795" fill="#8A4709"/>
<rect x="48.6406" y="44.5527" width="3.70795" height="3.70795" fill="#8A4709"/>
<rect x="48.6406" y="51.9668" width="3.70795" height="3.70795" fill="#8A4709"/>
<rect x="48.6406" y="48.2598" width="3.70795" height="3.70795" fill="#8A4709"/>
<rect x="48.6406" y="55.6741" width="3.70795" height="3.70795" fill="#8A4709"/>
<rect x="48.6406" y="59.3811" width="3.70795" height="3.70795" fill="#8A4709"/>
<rect x="48.6406" y="63.0879" width="3.70795" height="3.70795" fill="#8A4709"/>
<rect x="70.8831" y="44.5527" width="3.70795" height="3.70795" fill="#8A4709"/>
<rect x="70.8831" y="51.9668" width="3.70795" height="3.70795" fill="#8A4709"/>
<rect x="70.8831" y="48.2598" width="3.70795" height="3.70795" fill="#8A4709"/>
<rect x="70.8831" y="55.6741" width="3.70795" height="3.70795" fill="#8A4709"/>
<rect x="70.8831" y="59.3811" width="3.70795" height="3.70795" fill="#8A4709"/>
<rect x="33.8123" y="44.5527" width="3.70795" height="3.70795" fill="#8A4709"/>
<rect x="63.4688" y="44.5527" width="3.70795" height="3.70795" fill="#8A4709"/>
<rect x="63.4688" y="51.9668" width="3.70795" height="3.70795" fill="#8A4709"/>
<rect x="63.4688" y="48.2598" width="3.70795" height="3.70795" fill="#8A4709"/>
<rect x="63.4688" y="55.6741" width="3.70795" height="3.70795" fill="#8A4709"/>
<rect x="63.4688" y="59.3811" width="3.70795" height="3.70795" fill="#8A4709"/>
<rect x="85.7112" y="44.5527" width="3.70795" height="3.70795" fill="#8A4709"/>
<rect x="100.54" y="44.553" width="3.70795" height="3.70795" fill="#8A4709"/>
<rect x="100.54" y="40.8459" width="3.70795" height="3.70795" fill="#8A4709"/>
<rect x="115.368" y="37.1389" width="3.70795" height="3.70795" fill="#8A4709"/>
<rect x="115.368" y="44.553" width="3.70795" height="3.70795" fill="#8A4709"/>
<rect x="115.368" y="40.8459" width="3.70795" height="3.70795" fill="#8A4709"/>
<rect x="115.368" y="33.4316" width="3.70795" height="3.70795" fill="#8A4709"/>
<rect x="115.368" y="29.7246" width="3.70795" height="3.70795" fill="#F55C54"/>
<rect x="115.368" y="26.0176" width="3.70795" height="3.70795" fill="#8A4709"/>
<rect x="93.1257" y="44.553" width="3.70795" height="3.70795" fill="#8A4709"/>
<rect x="107.954" y="44.553" width="3.70795" height="3.70795" fill="#8A4709"/>
<rect x="107.954" y="40.8459" width="3.70795" height="3.70795" fill="#8A4709"/>
<rect x="122.782" y="37.1389" width="3.70795" height="3.70795" fill="#8A4709"/>
<rect x="107.954" y="37.1389" width="3.70795" height="3.70795" fill="#8A4709"/>
<rect x="122.782" y="44.553" width="3.70795" height="3.70795" fill="#8A4709"/>
<rect x="126.489" y="37.1389" width="3.70795" height="3.70795" fill="#F55C54"/>
<rect x="122.782" y="40.8459" width="3.70795" height="3.70795" fill="#8A4709"/>
<rect x="122.782" y="33.4316" width="3.70795" height="3.70795" fill="#F55C54"/>
<rect x="122.782" y="29.7246" width="3.70795" height="3.70795" fill="#8A4709"/>
<rect x="122.782" y="26.0176" width="3.70795" height="3.70795" fill="#8A4709"/>
<rect x="122.782" y="22.3103" width="3.70795" height="3.70795" fill="#8A4709"/>
<rect x="122.782" y="18.6035" width="3.70795" height="3.70795" fill="#8A4709"/>
<rect x="122.782" y="14.8962" width="3.70795" height="3.70795" fill="#8A4709"/>
<rect x="122.782" y="11.1892" width="3.70795" height="3.70795" fill="#8A4709"/>
<rect x="126.489" y="44.553" width="3.70795" height="3.70795" fill="#8A4709"/>
<rect x="126.489" y="40.8459" width="3.70795" height="3.70795" fill="#8A4709"/>
<rect x="126.489" y="33.4316" width="3.70795" height="3.70795" fill="#8A4709"/>
<rect x="126.489" y="29.7246" width="3.70795" height="3.70795" fill="#8A4709"/>
<rect x="126.489" y="26.0176" width="3.70795" height="3.70795" fill="#8A4709"/>
<rect x="126.489" y="22.3103" width="3.70795" height="3.70795" fill="#8A4709"/>
<rect x="126.489" y="18.6035" width="3.70795" height="3.70795" fill="#8A4709"/>
<rect x="126.489" y="14.8962" width="3.70795" height="3.70795" fill="#8A4709"/>
<rect x="126.489" y="11.1892" width="3.70795" height="3.70795" fill="#8A4709"/>
<rect x="130.197" y="44.553" width="3.70795" height="3.70795" fill="#8A4709"/>
<rect x="130.197" y="40.8459" width="3.70795" height="3.70795" fill="#8A4709"/>
<rect x="130.197" y="37.1389" width="3.70795" height="3.70795" fill="#8A4709"/>
<rect x="85.7112" y="51.9668" width="3.70795" height="3.70795" fill="#8A4709"/>
<rect x="100.54" y="51.967" width="3.70795" height="3.70795" fill="#8A4709"/>
<rect x="115.368" y="51.967" width="3.70795" height="3.70795" fill="#8A4709"/>
<rect x="93.1257" y="51.967" width="3.70795" height="3.70795" fill="#8A4709"/>
<rect x="107.954" y="51.967" width="3.70795" height="3.70795" fill="#8A4709"/>
<rect x="122.782" y="51.967" width="3.70795" height="3.70795" fill="#8A4709"/>
<rect x="126.489" y="51.967" width="3.70795" height="3.70795" fill="#8A4709"/>
<rect x="130.197" y="51.967" width="3.70795" height="3.70795" fill="#8A4709"/>
<rect x="85.7112" y="48.2598" width="3.70795" height="3.70795" fill="#8A4709"/>
<rect x="100.54" y="48.2598" width="3.70795" height="3.70795" fill="#8A4709"/>
<rect x="115.368" y="48.2598" width="3.70795" height="3.70795" fill="#8A4709"/>
<rect x="93.1257" y="48.2598" width="3.70795" height="3.70795" fill="#8A4709"/>
<rect x="107.954" y="48.2598" width="3.70795" height="3.70795" fill="#8A4709"/>
<rect x="122.782" y="48.2598" width="3.70795" height="3.70795" fill="#8A4709"/>
<rect x="126.489" y="48.2598" width="3.70795" height="3.70795" fill="#8A4709"/>
<rect x="130.197" y="48.2598" width="3.70795" height="3.70795" fill="#8A4709"/>
<rect x="85.7112" y="55.6741" width="3.70795" height="3.70795" fill="#8A4709"/>
<rect x="100.54" y="55.6743" width="3.70795" height="3.70795" fill="#8A4709"/>
<rect x="115.368" y="55.6743" width="3.70795" height="3.70795" fill="#8A4709"/>
<rect x="93.1257" y="55.6743" width="3.70795" height="3.70795" fill="#8A4709"/>
<rect x="107.954" y="55.6743" width="3.70795" height="3.70795" fill="#8A4709"/>
<rect x="122.782" y="55.6743" width="3.70795" height="3.70795" fill="#8A4709"/>
<rect x="126.489" y="55.6743" width="3.70795" height="3.70795" fill="#8A4709"/>
<rect x="85.7112" y="59.3811" width="3.70795" height="3.70795" fill="#8A4709"/>
<rect x="100.54" y="59.3811" width="3.70795" height="3.70795" fill="#8A4709"/>
<rect x="115.368" y="59.3811" width="3.70795" height="3.70795" fill="#8A4709"/>
<rect x="93.1257" y="59.3811" width="3.70795" height="3.70795" fill="#8A4709"/>
<rect x="107.954" y="59.3811" width="3.70795" height="3.70795" fill="#8A4709"/>
<rect x="122.782" y="59.3811" width="3.70795" height="3.70795" fill="#8A4709"/>
<rect x="126.489" y="59.3811" width="3.70795" height="3.70795" fill="#8A4709"/>
<rect x="85.7112" y="63.0879" width="3.70795" height="3.70795" fill="#8A4709"/>
<rect x="100.54" y="63.0881" width="3.70795" height="3.70795" fill="#8A4709"/>
<rect x="100.54" y="66.7954" width="3.70795" height="3.70795" fill="#8A4709"/>
<rect x="115.368" y="63.0881" width="3.70795" height="3.70795" fill="#8A4709"/>
<rect x="115.368" y="66.7954" width="3.70795" height="3.70795" fill="#8A4709"/>
<rect x="93.1257" y="63.0881" width="3.70795" height="3.70795" fill="#8A4709"/>
<rect x="107.954" y="63.0881" width="3.70795" height="3.70795" fill="#8A4709"/>
<rect x="122.782" y="63.0881" width="3.70795" height="3.70795" fill="#8A4709"/>
<path d="M197.964 88.7592H176.003C182.304 80.5955 180.224 71.2677 180.364 62.3279C180.581 48.4526 180.395 34.5774 180.426 20.7176C180.426 13.6868 181.078 6.54744 175.801 0.261657C184.415 0.261657 192.408 -0.312599 200.261 0.416862C210.365 1.36361 216.899 7.37002 219.506 17.2255C222.036 26.7706 221.617 36.3312 218.606 45.69C215.176 56.337 207.944 61.645 196.784 61.7692C194.037 61.8002 193.137 62.5607 193.479 65.2147C193.68 66.7357 193.541 68.2878 193.51 69.8398C193.385 76.3739 193.013 82.9701 197.979 88.7747L197.964 88.7592ZM193.51 30.7128C193.51 38.9231 193.51 47.1334 193.51 55.3437C193.51 56.1973 193.106 57.3148 193.96 57.8425C195.015 58.4788 195.931 57.5166 196.738 56.9734C199.563 55.0643 201.798 52.5345 203.101 49.4149C208.316 36.9209 208.363 24.2407 203.8 11.5761C202.558 8.13052 200.199 5.39892 196.598 3.97104C194.394 3.08638 193.385 3.28814 193.432 6.08182C193.587 14.2921 193.479 22.5025 193.479 30.7128H193.51Z" fill="#320010"/>
<path d="M306.328 88.6814V58.2613C309.416 63.4607 311.915 68.1944 315.237 72.4004C317.797 75.6597 320.576 78.6862 324.021 81.0143C328.274 83.9011 332.837 84.196 336.313 81.6351C340.225 78.7638 341.435 74.6975 340.706 70.0413C339.93 65.1058 337.089 61.2723 333.535 58.013C329.174 54.0242 324.518 50.3304 320.126 46.3727C314.352 41.1733 308.951 35.6636 307.554 27.5153C304.791 11.4672 319.241 -2.62538 335.274 0.509746C339.821 1.39441 344.337 2.82229 349.071 0.106215V28.5707C347.705 28.4776 347.752 27.0031 347.286 26.165C343.934 20.05 340.178 14.2453 334.854 9.60472C333.163 8.13028 331.285 7.1525 329.019 6.87313C322.174 6.0195 318.077 10.0083 318.837 16.8528C319.474 22.5333 321.957 27.3446 325.775 31.5662C330.462 36.75 336.096 40.8784 341.125 45.6742C343.934 48.3593 346.417 51.2771 348.621 54.4743C353.153 61.0705 353.277 67.9926 349.676 74.8682C344.337 85.0496 332.759 92.546 319.132 87.3001C314.724 85.6083 310.596 85.9187 306.359 88.6659L306.328 88.6814Z" fill="#320010"/>
<path d="M461.703 88.7744H440.89C447.409 74.9612 443.373 60.3254 444.398 46.0932C444.615 43.0512 443.824 40.0092 440.549 38.783C437.352 37.588 434.372 38.6434 432.044 40.9714C428.8 44.1997 426.394 47.7694 426.627 52.7825C426.922 58.8044 426.782 64.8574 426.673 70.8948C426.549 77.0875 426.518 83.2181 430.802 88.7899H410.858C415.126 69.529 415.033 50.2837 410.858 30.4641C414.009 30.4641 418.168 30.3244 422.312 30.5262C424.082 30.6193 424.656 32.4817 425.075 33.9096C425.82 36.4705 426.254 39.1245 426.813 41.7785C428.241 41.6388 428.614 40.3661 429.405 39.6367C430.911 38.2398 432.245 36.6257 433.844 35.353C438.422 31.7368 443.389 28.7103 449.395 31.566C455.433 34.4373 457.466 39.916 457.528 46.2173C457.606 54.319 457.621 62.4052 457.528 70.5068C457.451 76.8237 457.342 83.0939 461.703 88.7899V88.7744Z" fill="#320010"/>
<path d="M503.406 28.4776V50.2218C500.38 46.3261 497.772 42.9272 495.118 39.5747C493.039 36.9518 490.757 34.4685 487.87 32.6992C484.363 30.5418 480.777 30.9454 478.387 33.5994C476.028 36.2223 475.966 39.4195 478.248 42.7875C480.7 46.4037 484.301 48.7008 487.886 50.9512C491.797 53.419 496.003 55.4366 499.464 58.5873C506.122 64.6247 507.643 73.7197 503.235 80.9057C499.076 87.6881 489.748 90.9629 481.817 87.9675C476.975 86.1361 472.35 84.4443 467.275 87.9985V66.8286C470.425 71.0812 473.234 74.682 476.494 77.9102C479.256 80.6418 482.112 83.1872 485.884 84.4909C489.484 85.7325 492.2 84.5685 494.203 81.542C496.267 78.4069 495.32 75.6598 492.79 73.3007C489.764 70.4604 486.023 68.6445 482.454 66.5958C478.775 64.485 474.973 62.545 471.9 59.534C462.184 50.0355 465.909 32.9475 478.542 29.0674C482.438 27.8723 486.442 27.7947 490.385 28.7259C494.699 29.7503 498.952 30.2159 503.375 28.4776H503.406Z" fill="#320010"/>
<path d="M248.576 88.9297C242.647 89.0073 237.464 86.9586 232.916 83.2958C218.436 71.6399 218.575 47.4746 233.164 35.9429C244.758 26.7859 261.645 29.6727 269.7 42.0735C271.159 44.3085 270.01 44.8206 268.318 45.5967C257.826 50.4546 247.412 55.4832 236.843 60.1703C234.065 61.412 233.816 62.7002 235.074 65.0438C237.634 69.8241 240.226 74.6044 245.239 77.3204C254.303 82.2404 264.655 78.9966 270.46 69.5137C270.988 68.6445 271.081 66.8441 272.711 67.5115C274.62 68.2875 273.254 69.6999 272.881 70.7553C269.125 81.6351 259.316 88.9297 248.561 88.9297H248.576ZM233.351 58.3855C241.251 53.4966 248.763 48.8404 256.305 44.1998C257.175 43.6721 257.749 43.2065 256.973 42.1046C254.179 38.1934 250.827 35.0738 245.705 34.9341C241.111 34.8099 237.324 36.6258 235.167 40.7853C232.342 46.2175 232.078 52.0066 233.366 58.3855H233.351Z" fill="#320010"/>
<path d="M382.239 88.9143C370.21 88.8212 360.091 80.0522 356.894 66.9219C353.153 51.5101 361.659 35.6327 375.891 31.4732C386.212 28.4622 398.256 33.2425 403.812 42.322C405.178 44.5569 403.781 44.8984 402.369 45.5657C391.768 50.5012 381.214 55.5143 370.552 60.3257C368.255 61.3655 367.696 62.3589 368.845 64.6248C371.39 69.5914 374.013 74.4803 379.104 77.305C388.105 82.3026 398.613 79.0433 404.371 69.6379C404.961 68.6757 405.1 66.6891 406.916 67.6203C408.36 68.3653 407.211 69.669 406.87 70.6778C403.129 81.6818 393.196 89.023 382.223 88.9454L382.239 88.9143ZM367.324 58.3701C375.161 53.5277 382.673 48.8716 390.201 44.231C391.039 43.7188 391.722 43.2687 390.93 42.1512C388.137 38.2401 384.8 35.0894 379.678 34.9498C374.758 34.8256 370.893 36.8743 368.767 41.4373C366.284 46.7298 366.02 52.2551 367.324 58.3701Z" fill="#320010"/>
<path d="M536.543 88.9299C530.614 88.9919 525.446 86.9432 520.898 83.2804C506.294 71.5004 506.635 47.1023 521.519 35.6947C533.097 26.817 549.844 29.8435 557.744 42.1202C559.234 44.4172 557.961 44.8518 556.316 45.6278C545.824 50.4857 535.41 55.5299 524.84 60.2015C521.985 61.4587 521.892 62.7624 523.118 65.106C525.601 69.7931 528.177 74.4493 532.958 77.1964C541.804 82.3026 552.622 79.0899 558.334 69.8397C558.923 68.893 558.97 66.7977 560.755 67.5582C562.835 68.4429 561.174 70.0725 560.77 71.1589C556.875 81.8836 547.159 88.9454 536.543 88.9299ZM521.395 58.3701C529.233 53.5277 536.543 49.0268 543.853 44.4793C544.614 43.9982 546.072 43.7033 545.064 42.2599C542.332 38.3177 538.995 35.136 533.873 34.9653C528.969 34.7945 525.058 36.7967 522.9 41.3442C520.386 46.6211 520.107 52.1619 521.395 58.3701Z" fill="#320010"/>
<path d="M301.206 88.9297C296.147 88.9297 292.266 88.6969 288.417 89.0073C285.282 89.2712 283.591 87.7812 282.333 85.3445C280.455 81.7282 279.819 77.8326 279.819 73.8128C279.819 61.8621 279.695 49.9113 279.897 37.9606C279.959 34.7789 279.214 33.5062 275.939 34.0184C275.163 34.1426 273.642 34.7323 273.642 32.963C273.642 31.9542 273.192 30.9143 274.822 30.1848C283.963 26.1806 285.748 19.6775 280.145 11.5758C280.021 11.4051 280.083 11.1102 279.99 10.3187C283.979 10.3187 287.905 10.4273 291.832 10.2721C293.989 10.1945 293.989 11.731 294.284 13.0037C295.79 19.7706 293.632 25.2338 286.912 30.4176C291.863 30.4176 295.991 30.3866 300.12 30.4332C301.392 30.4487 303.038 29.8123 303.146 32.2025C303.27 34.6702 301.61 34.0184 300.337 34.0649C295.433 34.1995 292.98 36.662 292.98 41.4527C292.98 50.3149 293.198 59.1925 292.872 68.0547C292.577 75.9701 293.881 83.0785 301.206 88.9452V88.9297Z" fill="#320010"/>
</svg>
